# xmcd
#
# Track frame offsets: 
#        150
#        17585
#        35465
#        51770
#        66414
#        84665
#        100639
#        118625
#        136476
#        152618
#        168541
#        184819
#        200422
#
# Disc length: 2939 seconds
#
# Revision: 0
# Processed by: cddbd v1.5.2PL0 Copyright (c) Steve Scherf et al.
# Submitted via: ExactAudioCopy v0.99pb5
#
DISCID=ac0b790d
DTITLE=Shenkar - Open the Door
DYEAR=2007
DGENRE=New Age
TTITLE0=Open the Door
TTITLE1=End of Time
TTITLE2=I Want Everything
TTITLE3=Madly
TTITLE4=Surrender
TTITLE5=Scattered
TTITLE6=One Track Mind
TTITLE7=We Are All One
TTITLE8=Hear She
TTITLE9=Rainbow
TTITLE10=Hey You
TTITLE11=Desire
TTITLE12=Are You Real
EXTD=
EXTT0=
EXTT1=
EXTT2=
EXTT3=
EXTT4=
EXTT5=
EXTT6=
EXTT7=
EXTT8=
EXTT9=
EXTT10=
EXTT11=
EXTT12=
PLAYORDER=
